<?xml version="1.0" ?><!DOCTYPE svg  PUBLIC '-//W3C//DTD SVG 1.1//EN'  'http://www.w3.org/Graphics/SVG/1.1/DTD/svg11.dtd'><svg enable-background="new 0 0 512 512" id="Layer_1" version="1.1" viewBox="0 0 512 512" xml:space="preserve" xmlns="http://www.w3.org/2000/svg" xmlns:xlink="http://www.w3.org/1999/xlink"><g><path d="M256.7,507.8C119,507.8,7.9,395.2,8.5,255.1C9.2,117.3,120.5,4.7,260,6.2   c136.4,1.5,246.8,113.6,245.5,253.4C504.2,396.8,394.1,507.6,256.7,507.8z M257,488.2c124.1,0.3,227.6-100.7,228.9-228.6   c1.3-130.3-102.8-232.4-226.4-233.7C133.6,24.5,28.8,126.5,28.1,255C27.5,384.6,129.7,488.1,257,488.2z" fill="#0D9BCB"/><path d="M356.5,336.9c-5.4,6.4-10.8,12.2-18.1,15.4c-22,9.5-43.6,8.3-63.9-4.5c-24.2-15.1-36.4-38.3-41.6-65.5   c-7-36.4,2.2-68.3,29.5-93.7c19.8-18.4,43.4-25.4,70.1-17.3c8.4,2.5,15.5,7.5,22.6,12.8c1.7-1.7,1-3.6,1-5.2   c0.1-20.2,0.1-40.3,0-60.5c0-5.4,1.1-10.6,3.8-15.3c6.3-10.9,17.5-15.2,30.6-11.9c10.1,2.5,18.1,13.1,18.4,24.8c0.2,7,0,14,0,21   c0,63.5,0,127,0,190.5c0,3.4-0.2,6.7-1.1,9.9c-2.9,9.9-8.3,17.6-19.1,19.5c-13,2.3-21.7-1.6-28.1-12.2   C359.2,342.2,358,339.8,356.5,336.9z M356.2,261.5c-0.3-12.8-3.2-23.7-10.3-33.3c-11.1-15-31.4-17.7-45.9-6   c-21.6,17.4-21.6,59.6,0.1,77.1c12.6,10.2,30.8,9.2,42.3-2.3C352.4,286.9,355.6,274.2,356.2,261.5z" fill="#B82025"/><path d="M158.5,358.1c-15-0.5-35.1-4.2-52.5-17c-13.7-10.2-15.4-26.3-4.3-38.1c6.8-7.2,14.9-8,23.9-5.4   c8.1,2.3,15.1,6.9,22.9,9.8c5.5,2,10.9,4,16.9,3.9c3.8-0.1,7.2-1.1,10.3-3.2c7.3-4.9,6.9-13.9-0.9-18.1   c-8.7-4.6-18.1-7.6-27.3-11.1c-9.5-3.7-18.6-8.1-27.2-13.6c-19.3-12.5-24.1-31.3-18.4-52.5c6.2-22.9,22.8-36.6,45.2-42.3   c22.4-5.7,44.3-2.9,64.5,9.3c4.6,2.8,8.6,6.3,11.9,10.5c11.1,13.9,2.9,34.5-14.6,37.2c-4,0.6-7.5-1.1-11.1-2.3   c-9.9-3.3-19.2-8.5-29.8-9.9c-3.2-0.4-6.3-0.3-9.4,0.6c-3.3,0.9-6.2,2.5-7,6.3c-0.8,3.8,0.7,6.9,3.5,9.3c3.4,3,7.4,5,11.6,6.7   c12.8,5.2,25.8,9.8,37.9,16.6c18,10.2,29,24.6,27.8,45.9c-1.3,22.5-11.9,39.6-32.2,49.9C189.4,356.2,179.2,358.1,158.5,358.1z" fill="#0E9BCB"/></g></svg>